<?xml version="1.0" encoding="utf-8"?>
<!-- Generator: Adobe Illustrator 19.0.0, SVG Export Plug-In . SVG Version: 6.00 Build 0)  -->
<svg version="1.1" xmlns="http://www.w3.org/2000/svg" xmlns:xlink="http://www.w3.org/1999/xlink" x="0px" y="0px"
	 viewBox="0 0 2528 348" style="enable-background:new 0 0 2528 348;" xml:space="preserve">
<style type="text/css">
	.st0{fill:url(#XMLID_84_);}
	.st1{fill:url(#XMLID_86_);}
	.st2{fill:url(#XMLID_87_);}
	.st3{display:none;}
	.st4{display:inline;fill:#303030;}
	.st5{fill:url(#XMLID_88_);}
	.st6{fill:url(#XMLID_89_);}
	.st7{fill:url(#XMLID_90_);}
	.st8{fill:url(#XMLID_91_);}
	.st9{fill:#2D2D2D;}
</style>
<g id="Calque_1">
	<g id="Lion">
		<linearGradient id="XMLID_84_" gradientUnits="userSpaceOnUse" x1="113.118" y1="145.0119" x2="116.0144" y2="126.7249">
			<stop  offset="0" style="stop-color:#FFEF26"/>
			<stop  offset="5.948725e-002" style="stop-color:#FFE000"/>
			<stop  offset="0.1303" style="stop-color:#FFD300"/>
			<stop  offset="0.2032" style="stop-color:#FECB00"/>
			<stop  offset="0.2809" style="stop-color:#FDC800"/>
			<stop  offset="0.6456" style="stop-color:#F18F34"/>
			<stop  offset="1" style="stop-color:#E3312D"/>
		</linearGradient>
		<path id="XMLID_17_" class="st0" d="M121.7,127.8c-4.6-1.6-17.8-0.2-22.7,0.4c-0.9,0.1-1.4,1.1-1,1.9l1.9,3.4
			c1.1,1.9,2.9,3.3,5.1,3.8l17.4,3.7c0.3,0.1,0.5,0.2,0.7,0.4l5.3,5.8c0.9,1,2.5,0.1,2.2-1.2C129,139.6,125.7,129.1,121.7,127.8z"/>
		<linearGradient id="XMLID_86_" gradientUnits="userSpaceOnUse" x1="180.6602" y1="147.5603" x2="180.6602" y2="127.0349">
			<stop  offset="0" style="stop-color:#FFEF26"/>
			<stop  offset="5.948725e-002" style="stop-color:#FFE000"/>
			<stop  offset="0.1303" style="stop-color:#FFD300"/>
			<stop  offset="0.2032" style="stop-color:#FECB00"/>
			<stop  offset="0.2809" style="stop-color:#FDC800"/>
			<stop  offset="0.5832" style="stop-color:#F18F34"/>
			<stop  offset="1" style="stop-color:#E3312D"/>
		</linearGradient>
		<path id="XMLID_16_" class="st1" d="M173.2,127.8c-4,1.3-7.2,11.9-8.8,18.2c-0.3,1.3,1.3,2.2,2.2,1.2l5.3-5.8
			c0.2-0.2,0.4-0.3,0.7-0.4l17.4-3.7c2.2-0.5,4-1.8,5.1-3.8l1.9-3.4c0.4-0.8-0.1-1.8-1-1.9C191,127.6,177.8,126.2,173.2,127.8z"/>
		<g id="XMLID_10_">
			<linearGradient id="XMLID_87_" gradientUnits="userSpaceOnUse" x1="21.7682" y1="133.4134" x2="261.1376" y2="197.5522">
				<stop  offset="0" style="stop-color:#F1C40F"/>
				<stop  offset="6.543022e-002" style="stop-color:#EEA80F"/>
				<stop  offset="0.2118" style="stop-color:#E6520F"/>
				<stop  offset="0.2184" style="stop-color:#E55111"/>
				<stop  offset="0.4084" style="stop-color:#CA4026"/>
				<stop  offset="0.5174" style="stop-color:#C03A2A"/>
				<stop  offset="0.547" style="stop-color:#BF3B30"/>
				<stop  offset="0.5981" style="stop-color:#BA4040"/>
				<stop  offset="0.6645" style="stop-color:#B24859"/>
				<stop  offset="0.7435" style="stop-color:#A4517B"/>
				<stop  offset="0.8285" style="stop-color:#905BA1"/>
				<stop  offset="0.8674" style="stop-color:#8669AB"/>
				<stop  offset="0.9472" style="stop-color:#6486C4"/>
				<stop  offset="1" style="stop-color:#3997D3"/>
			</linearGradient>
			<path id="XMLID_171_" class="st2" d="M274,145.8c-5.8-37.4-29.6-69.7-38.3-78.7c-1.2-1.2-0.8-2.2,0.9-2.2c4.9,0,12-0.2,16.2-0.3
				c1.9,0,2.3-1.1,0.8-2.3c-20.5-16.5-50.5-17.7-60.4-17.6c-1.8,0-2.2-1-0.9-2.2c2.8-2.6,6.5-5.7,8.9-7.7c1.3-1.1,1-2.2-0.8-2.2
				c-27.3-1.5-49.7,6.1-53.9,9.4c-0.4,0.3,0.4,0.3,0,0c-4.2-3.3-23-17.3-52-9.4c-1.7,0.5-2.1,1.1-0.8,2.2c2.4,2,6.1,5.2,8.9,7.7
				c1.4,1.2,1,2.2-0.9,2.2c-9.9-0.1-39.9,1.1-60.4,17.6c-1.5,1.2-1.1,2.2,0.8,2.3c4.2,0.1,11.3,0.2,16.2,0.3c1.7,0,2.1,1,0.9,2.2
				c-8.8,9-32.6,41.4-38.3,78.7c-0.2,1.3,0.6,1.9,1.8,1.3c5.2-2.4,14.2-6.4,22.7-8.5c2.2-0.5,2.8,0.4,1.3,2.1
				c-4.8,5.5-14.9,18.1-19.2,32.7c-0.1,0.2-0.1,0.6,0.1,0.9c3.2,7.3,7.3,15.8,12.3,24.8c0.4,0.7,1.2,0.9,1.9,0.4
				c4.3-3.1,9.7-6.7,15.1-9.4c2-1,2.8-0.2,1.7,1.7c-2.5,4.5-6.6,13-9.2,22.8c-0.1,0.3,0,0.7,0.1,1c6.3,10.4,13.3,21.1,21,31.6
				c0.5,0.6,1.3,0.7,1.9,0.2c3.7-3.3,8.2-6.9,12.7-9.8c1.9-1.2,2.7-0.5,1.9,1.6c-1.8,4.3-4.5,11.8-6.2,20.6
				c-0.1,0.3,0.1,0.8,0.3,1.1c8.3,10.2,17,19.9,26.1,28.3c0.6,0.6,1.5,0.5,1.9-0.2c1.7-2.7,3.7-5.5,5.7-8c1.4-1.7,2.4-1.3,2.3,0.9
				c-0.3,3.6-0.5,9.2,0,15.4c0,0.3,0.3,0.7,0.5,0.9c9.7,7.7,19.6,13.8,29.6,17.6c0.3,0.1,0.7,0.1,0.9,0c9.9-3.7,19.9-9.8,29.6-17.6
				c0.2-0.2,0.5-0.6,0.5-0.9c0.5-6.3,0.3-11.9,0-15.4c-0.2-2.2,0.8-2.7,2.3-0.9c2.1,2.5,4,5.3,5.7,8c0.5,0.7,1.3,0.8,1.9,0.2
				c9.1-8.4,17.9-18.1,26.1-28.3c0.2-0.3,0.3-0.7,0.3-1.1c-1.7-8.8-4.5-16.4-6.2-20.6c-0.9-2.1,0-2.8,1.9-1.6
				c4.5,2.9,8.9,6.5,12.7,9.8c0.6,0.5,1.4,0.4,1.9-0.2c7.7-10.5,14.8-21.2,21-31.6c0.2-0.3,0.2-0.7,0.1-1
				c-2.6-9.9-6.8-18.3-9.2-22.8c-1.1-2-0.3-2.8,1.7-1.7c5.3,2.7,10.7,6.3,15.1,9.4c0.6,0.5,1.5,0.3,1.9-0.4
				c4.9-9.1,9.1-17.5,12.3-24.8c0.1-0.2,0.1-0.6,0.1-0.9c-4.3-14.5-14.4-27.2-19.2-32.7c-1.5-1.7-0.9-2.6,1.3-2.1
				c8.5,2.1,17.5,6.1,22.7,8.5C273.4,147.7,274.2,147.1,274,145.8z M188.7,64.2l13.6-3c0.3-0.1,0.7,0,0.9,0.3
				c3.7,5.4,6.8,18.2,8.2,24.5c0.2,0.9-0.9,1.4-1.5,0.7c-7-8.7-16.3-15.3-21.8-18.7C185.6,66.5,185.9,64.8,188.7,64.2z M83.6,86.1
				c1.4-6.3,4.5-19.2,8.2-24.5c0.2-0.3,0.5-0.4,0.9-0.3l13.6,3c2.8,0.6,3.1,2.4,0.7,3.9c-5.5,3.4-14.8,10-21.8,18.7
				C84.5,87.4,83.4,86.9,83.6,86.1z M147.5,241.8c-14.6,0-25.6-7.9-25.3-12.7c0.3-4.4,22.4-9.9,25-10.6c0.2,0,0.4,0,0.6,0
				c2.7,0.7,25.1,6,25.4,10.4C173.4,233.7,162.1,241.8,147.5,241.8z M204,166.8c-13.4,14.2-20.2,18.8-14.6,25.2
				c5.5,6.1,4.5,24.2-13.1,23.8c-11.1-0.2-19.7-2.9-24.5-4.8c-0.4-0.2-0.8-0.6-0.8-1.1c-0.3-3.6-0.3-9.1,2.7-11.2
				c4.3-2.9,15.5-10,13.6-14.2l0.2,0.1l-1.5-5.4c-3.4-12.3-4.6-12.1-2.5,0.5v0c0.2,1.1-0.6,1.8-1.6,1.4c-5.8-1.8-13.9-2.1-14.5-2.1
				c0,0-0.1,0-0.1,0c-0.6,0-8.7,0.3-14.5,2.1c-1.1,0.3-1.8-0.3-1.6-1.4l0,0c2.1-12.6,0.9-12.9-2.5-0.5l-1.5,5.4l0.2-0.1
				c-1.9,4.2,9.3,11.3,13.6,14.2c3,2.1,3.1,7.6,2.7,11.2c0,0.4-0.4,0.9-0.8,1.1c-4.8,1.9-13.4,4.6-24.5,4.8
				c-17.5,0.4-18.6-17.7-13.1-23.8c5.7-6.3-1.2-11-14.6-25.2c-14.3-15.2-16.1-22.4-5.5-39.9c11.5-19,31.2-42.5,34.6-36.1
				c2.7,3.8,6.8,7.5,11,10.7c10,7.5,22.8,7.5,32.8,0c4.2-3.2,8.3-6.9,11-10.7c3.4-6.5,23.1,17.1,34.6,36.1
				C220.1,144.4,218.4,151.6,204,166.8z"/>
		</g>
	</g>
	<g id="XMLID_9_" class="st3">
		<path id="XMLID_22_" class="st4" d="M409.9,250c-13.9-8.1-24.5-19.5-32-34.4c-7.4-14.9-11.2-32.5-11.2-52.8
			c0-20.1,3.7-37.6,11.2-52.5c7.4-14.9,18.1-26.3,32-34.3c13.9-8,30.1-12,48.8-12c13.2,0,25.5,2,36.9,6.1
			c11.3,4.1,20.9,10,28.7,17.8l-9.8,20.7c-9.1-7.4-18-12.8-26.8-16.2c-8.8-3.4-18.4-5-28.7-5c-20.1,0-35.7,6.5-46.6,19.6
			c-11,13.1-16.5,31.6-16.5,55.8c0,24.3,5.5,43,16.5,56.2c11,13.1,26.5,19.7,46.6,19.7c10.3,0,19.9-1.7,28.7-5
			c8.8-3.4,17.7-8.7,26.8-16.2l9.8,20.7C516.5,246,507,252,495.6,256c-11.3,4.1-23.6,6.1-36.9,6.1
			C440.1,262.2,423.8,258.1,409.9,250z"/>
		<path id="XMLID_126_" class="st4" d="M679.4,174.6V260h-27.5v-83.8c0-12-2.3-20.7-6.9-26.1s-12-8.2-22.2-8.2
			c-11.6,0-20.9,3.6-27.9,10.9c-7,7.3-10.5,17-10.5,29.1V260h-27.2V59.8h27.2v84.3c4.5-8,10.8-14.1,18.8-18.2c8-4.2,17-6.3,26.9-6.3
			C662.9,119.6,679.4,137.9,679.4,174.6z"/>
		<path id="XMLID_129_" class="st4" d="M843.9,122.9V260h-27.2v-23.4c-4,8.2-9.9,14.4-17.8,18.8c-7.9,4.4-17.1,6.5-27.6,6.5
			c-12.2,0-22.8-2.9-32-8.7c-9.2-5.8-16.3-14-21.4-24.6c-5.1-10.6-7.6-23-7.6-37.1s2.6-26.7,7.8-37.5s12.4-19.3,21.6-25.3
			c9.2-6,19.8-9,31.6-9c10.5,0,19.7,2.2,27.5,6.7c7.8,4.4,13.8,10.7,18,18.9v-22.3H843.9z M806.5,227.2c6.8-8.6,10.2-20.7,10.2-36.3
			c0-15.8-3.4-27.9-10.2-36.4c-6.8-8.5-16.5-12.8-29-12.8c-12.3,0-22,4.4-29,13.2c-7,8.8-10.5,21-10.5,36.6
			c0,15.4,3.5,27.4,10.5,35.9c7,8.5,16.7,12.8,29.2,12.8C790.1,240.1,799.7,235.8,806.5,227.2z"/>
		<path id="XMLID_132_" class="st4" d="M884.2,260V59.8h27.2V260H884.2z"/>
		<path id="XMLID_134_" class="st4" d="M951.6,260V59.8h27.2V260H951.6z"/>
		<path id="XMLID_136_" class="st4" d="M1136,192h-97.9c0.9,32.1,15.5,48.1,43.8,48.1c15.8,0,30.2-5.2,43.2-15.5l8.4,19.6
			c-6.2,5.4-14,9.7-23.5,12.9c-9.5,3.2-19.1,4.8-28.7,4.8c-21.9,0-39.2-6.3-51.7-18.9c-12.5-12.6-18.8-29.9-18.8-51.8
			c0-14,2.8-26.4,8.3-37.3c5.5-10.9,13.3-19.3,23.3-25.3c10-6,21.3-9,34-9c18.5,0,33,6,43.7,18c10.6,12,15.9,28.6,15.9,49.8V192z
			 M1051.7,149.3c-6.5,6.2-10.7,15-12.5,26.4h72.6c-1.1-11.6-4.6-20.4-10.6-26.5c-6-6.1-14.1-9.1-24.2-9.1
			C1066.7,140,1058.2,143.1,1051.7,149.3z"/>
		<path id="XMLID_139_" class="st4" d="M1289.7,174.6V260h-27.5v-83.8c0-12-2.3-20.7-6.9-26.1s-12-8.2-22.2-8.2
			c-11.6,0-20.9,3.6-27.9,10.9c-7,7.3-10.5,17-10.5,29.1V260h-27.2v-98.5c0-14.3-0.7-27.2-2.2-38.6h25.6l2.4,23.7
			c4.4-8.7,10.7-15.4,18.9-20c8.2-4.6,17.6-6.9,28.2-6.9C1273.3,119.6,1289.7,137.9,1289.7,174.6z"/>
		<path id="XMLID_141_" class="st4" d="M1455.4,122.9v134.6c0,20.9-5.5,36.6-16.5,47.2c-11,10.6-27.2,15.9-48.8,15.9
			c-20.9,0-39.1-4.5-54.7-13.6l4.6-21.5c8.5,4.5,16.7,7.9,24.6,10.1c7.9,2.2,16.3,3.3,25.2,3.3c25.6,0,38.4-13.1,38.4-39.2v-29.6
			c-4.2,8-10.2,14.3-18.2,18.9c-8,4.6-17.2,6.9-27.7,6.9c-12,0-22.6-2.8-32-8.4c-9.3-5.6-16.6-13.6-21.8-23.9
			c-5.2-10.3-7.8-22.2-7.8-35.6c0-13.4,2.6-25.3,7.8-35.6s12.4-18.4,21.8-24.1c9.3-5.7,20-8.6,32-8.6c10.5,0,19.8,2.2,27.7,6.7
			c8,4.4,14.1,10.7,18.2,18.9v-22.3H1455.4z M1417.5,221.6c7.1-8.2,10.6-19.4,10.6-33.7c0-14.3-3.5-25.6-10.5-33.9
			c-7-8.2-16.7-12.4-29.2-12.4c-12.3,0-22.1,4.1-29.2,12.4c-7.2,8.3-10.7,19.5-10.7,33.9c0,14.1,3.6,25.3,10.7,33.6
			c7.2,8.3,16.9,12.4,29.2,12.4C1400.8,233.9,1410.5,229.8,1417.5,221.6z"/>
		<path id="XMLID_144_" class="st4" d="M1612.6,192h-97.9c0.9,32.1,15.5,48.1,43.8,48.1c15.8,0,30.2-5.2,43.2-15.5l8.4,19.6
			c-6.2,5.4-14,9.7-23.5,12.9c-9.5,3.2-19.1,4.8-28.7,4.8c-21.9,0-39.2-6.3-51.7-18.9c-12.5-12.6-18.8-29.9-18.8-51.8
			c0-14,2.8-26.4,8.3-37.3c5.5-10.9,13.3-19.3,23.3-25.3c10-6,21.3-9,34-9c18.5,0,33,6,43.7,18c10.6,12,15.9,28.6,15.9,49.8V192z
			 M1528.2,149.3c-6.5,6.2-10.7,15-12.5,26.4h72.6c-1.1-11.6-4.6-20.4-10.6-26.5c-6-6.1-14.1-9.1-24.2-9.1
			C1543.2,140,1534.8,143.1,1528.2,149.3z"/>
		<path id="XMLID_147_" class="st4" d="M1635.4,244.5l8.2-19.9c14.3,10.9,30.7,16.3,49.2,16.3c9.4,0,16.6-1.6,21.5-4.8
			c4.9-3.2,7.3-7.7,7.3-13.5c0-4.9-1.7-8.7-5-11.6c-3.4-2.8-9-5.2-17-7.2l-22.8-5.4c-12-2.5-21.1-7-27.3-13.5
			c-6.3-6.4-9.4-14.5-9.4-24.1c0-12.3,4.9-22.3,14.8-29.9c9.9-7.6,23-11.4,39.3-11.4c9.8,0,19.1,1.5,27.9,4.6
			c8.8,3.1,16.3,7.4,22.4,13.1l-8.4,19.3c-13.2-10.5-27.2-15.8-41.9-15.8c-8.9,0-15.8,1.7-20.7,5c-4.9,3.4-7.3,8-7.3,14
			c0,4.7,1.5,8.5,4.6,11.4c3.1,2.9,8,5.2,14.7,6.8l23.4,5.7c13.1,2.9,22.7,7.5,29,13.7c6.3,6.3,9.4,14.4,9.4,24.3
			c0,12.3-4.9,22.1-14.8,29.2c-9.9,7.2-23.3,10.7-40.4,10.7C1668.1,261.9,1649.2,256.1,1635.4,244.5z"/>
		<path id="XMLID_149_" class="st4" d="M1774.4,227.3h32.6V260h-32.6V227.3z"/>
	</g>
	<g id="XMLID_2_">
		<g id="XMLID_180_">
			<linearGradient id="XMLID_88_" gradientUnits="userSpaceOnUse" x1="1848.3525" y1="173" x2="2509.4495" y2="173">
				<stop  offset="0" style="stop-color:#F1C40F"/>
				<stop  offset="6.137253e-002" style="stop-color:#EEA80F"/>
				<stop  offset="0.1987" style="stop-color:#E6520F"/>
				<stop  offset="0.2039" style="stop-color:#E55111"/>
				<stop  offset="0.3551" style="stop-color:#CA4026"/>
				<stop  offset="0.4418" style="stop-color:#C03A2A"/>
				<stop  offset="0.4787" style="stop-color:#BF3B30"/>
				<stop  offset="0.5422" style="stop-color:#BA4040"/>
				<stop  offset="0.6246" style="stop-color:#B24859"/>
				<stop  offset="0.7229" style="stop-color:#A4517B"/>
				<stop  offset="0.8285" style="stop-color:#905BA1"/>
				<stop  offset="0.8674" style="stop-color:#8669AB"/>
				<stop  offset="0.9472" style="stop-color:#6486C4"/>
				<stop  offset="1" style="stop-color:#3997D3"/>
			</linearGradient>
			<path id="XMLID_202_" class="st5" d="M2037.1,109.7c2.4-3.3,6.1-6.9,11.3-10.6c5.1-3.7,10.8-7.4,17-11.1
				c6.2-3.7,12.5-7.4,18.8-11.1c6.3-3.7,11.8-7.2,16.5-10.6c4.7-3.3,8.1-6.6,10.2-9.7c2.1-3.1,2.1-6,0-8.6
				c-4.1-4.8-10.9-6.6-20.4-5.5c-9.5,1.1-21.2,4-35.1,8.8c-11.7,4.1-23.9,9.7-36.5,16.8c-12.7,7.2-25.2,15.3-37.6,24.5
				c-12.4,9.2-24.3,19-35.8,29.5c-11.5,10.5-21.8,21.2-31,32.2c-9.2,11-16.9,21.9-23.3,32.8c-6.3,10.9-10.5,21.1-12.5,30.8
				c-2,9.7-1.7,18.4,1.1,26.3c2.7,7.9,8.6,14.4,17.7,19.7c5.5,3.3,12.1,5,19.9,5c7.8,0,15.9-1.1,24.3-3.2c8.5-2.1,16.9-5.1,25.4-8.8
				c8.5-3.7,16.2-7.6,23.1-11.8c6.9-4.2,12.7-8.4,17.4-12.7c4.7-4.3,7.5-8,8.4-11.1c1.2-4.1,3.4-5.8,6.6-5.4
				c3.2,0.5,6.2,2.2,8.9,5.2c2.7,3,4.7,6.6,5.7,10.9s0.2,8.4-2.7,12.2c-2.6,3.6-7.3,7.8-14.1,12.7c-6.8,4.9-14.5,9.5-23.1,14
				c-8.6,4.4-17.6,8.2-27,11.5c-9.4,3.2-18.2,4.8-26.3,4.8c-12.7,0-24.6-1.5-35.8-4.5c-11.2-3-21.1-7.3-29.7-13.1
				s-15.6-12.7-20.9-20.8c-5.4-8.1-8.4-17.2-9.1-27.2c-0.7-7.6,1.5-17.4,6.6-29.2c5.1-11.8,12.5-24.3,22-37.6
				c9.5-13.2,21.1-26.7,34.5-40.5c13.5-13.7,28.5-26.4,44.9-38.1c16.5-11.7,34.1-21.8,53-30.3c18.9-8.5,38.3-14.1,58.4-17
				c13.6-1.9,24.9-2.1,34-0.5c9.1,1.6,16.3,4.1,21.7,7.5c5.4,3.5,9.1,7.5,11.1,12.2c2,4.7,2.9,8.9,2.7,12.7
				c-0.5,4.1-4.1,9-10.9,14.9c-6.8,5.9-14.7,12.1-23.8,18.8c-9.1,6.7-18,13.6-26.9,20.8c-8.8,7.2-15.4,14-19.7,20.4
				c-1.7,2.4-4.1,3-7.3,2c-3.2-1.1-6.1-3.1-8.6-6.1c-2.5-3-4.3-6.5-5.4-10.6C2033.7,117.1,2034.5,113.3,2037.1,109.7z"/>
			<linearGradient id="XMLID_89_" gradientUnits="userSpaceOnUse" x1="1848.3525" y1="173" x2="2509.4495" y2="173">
				<stop  offset="0" style="stop-color:#F1C40F"/>
				<stop  offset="6.137253e-002" style="stop-color:#EEA80F"/>
				<stop  offset="0.1987" style="stop-color:#E6520F"/>
				<stop  offset="0.2039" style="stop-color:#E55111"/>
				<stop  offset="0.3551" style="stop-color:#CA4026"/>
				<stop  offset="0.4418" style="stop-color:#C03A2A"/>
				<stop  offset="0.4787" style="stop-color:#BF3B30"/>
				<stop  offset="0.5422" style="stop-color:#BA4040"/>
				<stop  offset="0.6246" style="stop-color:#B24859"/>
				<stop  offset="0.7229" style="stop-color:#A4517B"/>
				<stop  offset="0.8285" style="stop-color:#905BA1"/>
				<stop  offset="0.8674" style="stop-color:#8669AB"/>
				<stop  offset="0.9472" style="stop-color:#6486C4"/>
				<stop  offset="1" style="stop-color:#3997D3"/>
			</linearGradient>
			<path id="XMLID_199_" class="st6" d="M2193.2,148.7c-6.4,10-12.3,19-17.5,27c-5.3,8-9.5,14.8-12.9,20.4
				c-3.3,5.6-5.6,10.1-6.8,13.4c-1.2,3.3-1.1,5.4,0.4,6.1c1.7,1,5.1-0.7,10.2-4.8c5.1-4.2,10.9-9.3,17.4-15.4
				c6.4-6.1,12.8-12.4,19-18.8c6.2-6.4,11.2-11.6,15-15.4c3.1-3.1,6.3-5.6,9.7-7.5c3.3-1.9,6-2.9,8.1-3c2-0.1,3,0.7,2.9,2.3
				c-0.1,1.7-2,4.4-5.5,8.2c-5.3,5.3-11.6,12.3-19,21.1c-7.4,8.8-14.7,17.6-22,26.3c-7.3,8.7-13.9,16.4-19.9,22.9
				c-6,6.6-10.3,10.2-12.9,10.9c-3.6,1.2-6.9,1.2-9.8,0c-3-1.2-5.5-3-7.7-5.5c-2.1-2.5-3.7-5.5-4.7-9c-1-3.5-1.2-7-0.7-10.6
				c0.2-2.9,1.2-6.3,2.9-10.2c1.7-3.9,3.6-7.9,5.7-11.8c2.1-3.9,4.2-7.6,6.1-11.1c1.9-3.5,3.5-6.1,4.7-8.1c-1,1.7-3,4.5-6.1,8.4
				c-3.1,3.9-6.9,8.4-11.3,13.4c-4.4,5-9.3,10.3-14.5,15.8c-5.3,5.5-10.5,10.4-15.8,14.9c-5.3,4.4-10.3,8.1-15,11.1
				c-4.8,3-8.8,4.5-12.2,4.5c-3.8,0-7.5-1.5-10.9-4.5c-3.5-3-6.3-6.7-8.6-11.1c-2.3-4.4-3.9-9.1-4.8-14.1c-1-5-0.8-9.4,0.4-13.2
				c1.2-4.3,4.4-10.1,9.5-17.5c5.1-7.4,11.3-15.3,18.4-23.8c7.2-8.5,15-17,23.4-25.6c8.5-8.6,16.8-16.3,24.9-23.1
				c8.1-6.8,15.7-12.1,22.7-15.9c7-3.8,12.7-5.2,17-4.3c1.7,0.5,3.6,1.9,5.7,4.3c2.1,2.4,4,5.4,5.5,9c1.5,3.6,2.6,7.6,3,12.2
				c0.5,4.5-0.1,9-1.8,13.2c3.3,1.9,6,4.8,7.9,8.8C2195.1,142.5,2195.1,145.9,2193.2,148.7z M2173.5,117.2
				c-2.9-1.4-7.4-0.3-13.6,3.4c-6.2,3.7-13.1,9-20.8,15.8c-7.6,6.8-15.5,14.4-23.6,22.9c-8.1,8.5-15.2,16.6-21.3,24.5
				c-6.1,7.9-10.8,14.9-14.1,21.1c-3.3,6.2-4.1,10.4-2.1,12.5c1.7,2.1,5.5,1.5,11.6-2c6.1-3.5,13.3-8.9,21.7-16.3
				c8.4-7.4,17.4-16.2,27-26.3c9.7-10.1,19-20.8,28.1-32c3.1-6,5.4-11.2,7-15.6C2174.9,120.9,2175,118.2,2173.5,117.2z"/>
			<linearGradient id="XMLID_90_" gradientUnits="userSpaceOnUse" x1="1848.3525" y1="173" x2="2509.4495" y2="173">
				<stop  offset="0" style="stop-color:#F1C40F"/>
				<stop  offset="6.137253e-002" style="stop-color:#EEA80F"/>
				<stop  offset="0.1987" style="stop-color:#E6520F"/>
				<stop  offset="0.2039" style="stop-color:#E55111"/>
				<stop  offset="0.3551" style="stop-color:#CA4026"/>
				<stop  offset="0.4418" style="stop-color:#C03A2A"/>
				<stop  offset="0.4787" style="stop-color:#BF3B30"/>
				<stop  offset="0.5422" style="stop-color:#BA4040"/>
				<stop  offset="0.6246" style="stop-color:#B24859"/>
				<stop  offset="0.7229" style="stop-color:#A4517B"/>
				<stop  offset="0.8285" style="stop-color:#905BA1"/>
				<stop  offset="0.8674" style="stop-color:#8669AB"/>
				<stop  offset="0.9472" style="stop-color:#6486C4"/>
				<stop  offset="1" style="stop-color:#3997D3"/>
			</linearGradient>
			<path id="XMLID_197_" class="st7" d="M2258.8,100.1c1.7-1.4,4.1-2.3,7.2-2.5c3.1-0.2,6,0.1,8.8,0.9c2.7,0.8,4.9,2,6.4,3.6
				c1.5,1.6,1.5,3.4-0.2,5.5c-1.9,2.6-5,6.5-9.1,11.6c-4.2,5.1-8.7,11.1-13.6,17.9c-4.9,6.8-9.9,14.1-15,22
				c-5.1,7.9-9.7,15.6-13.8,23.3c3.1-3.8,6.9-8.4,11.3-13.8c4.4-5.4,9.1-10.9,14-16.6c4.9-5.7,9.8-11.4,14.9-17
				c5-5.6,9.8-10.7,14.3-15.2c4.5-4.5,8.6-8.4,12.2-11.5c3.6-3.1,6.3-4.9,8.2-5.4c2.9-0.7,5.5-0.1,7.9,1.8c2.4,1.9,4.3,4.4,5.7,7.5
				c1.4,3.1,2.4,6.2,3,9.3c0.6,3.1,0.5,5.5-0.2,7.2c-0.7,1.7-3,5.5-6.8,11.5c-3.8,6-8,12.3-12.5,19c-5.3,7.9-11,16.4-17.2,25.4
				c13.8-15.8,26.5-29.9,37.9-42.6c4.8-5.2,9.6-10.5,14.5-15.8c4.9-5.2,9.4-10,13.4-14.3c4.1-4.3,7.6-7.8,10.6-10.6
				c3-2.7,5.1-4.4,6.3-4.8c2.4-1,4.8-0.5,7.2,1.3c2.4,1.8,4.4,4.2,6.1,7.2c1.7,3,2.6,6.2,2.9,9.7c0.2,3.5-0.5,6.4-2.1,8.8
				c-1.7,2.1-4.3,5.9-7.9,11.1c-3.6,5.3-7.5,11.3-11.8,18.1c-4.3,6.8-8.7,13.9-13.1,21.3c-4.4,7.4-8.3,14.3-11.6,20.8
				c-3.3,6.4-5.9,11.9-7.7,16.5c-1.8,4.5-2.2,7.3-1.3,8.2c0.7,0.7,2.7,0.1,5.9-2c3.2-2,7.2-4.8,11.8-8.2c4.7-3.5,9.7-7.5,15.2-12
				c5.5-4.5,10.9-9,16.1-13.4c5.2-4.4,10.1-8.6,14.5-12.7c4.4-4.1,7.8-7.3,10.2-9.7c3.6-3.6,7-6.3,10.4-8.1c3.3-1.8,5.9-2.6,7.7-2.5
				c1.8,0.1,2.6,1.1,2.3,2.9c-0.2,1.8-2,4.4-5.4,7.7c-2.1,2.1-5.4,5.7-9.8,10.6c-4.4,4.9-9.4,10.4-15,16.6
				c-5.6,6.2-11.5,12.6-17.5,19.2c-6.1,6.6-11.9,12.6-17.5,18.1c-5.6,5.5-10.6,10-15,13.4c-4.4,3.5-7.6,5.2-9.5,5.2
				c-3.1,0-6.3-1-9.5-2.9c-3.2-1.9-6.1-4.4-8.6-7.5c-2.5-3.1-4.4-6.7-5.5-10.7c-1.2-4.1-1.4-8.1-0.7-12.2c1.2-6,3.9-12.6,8.1-20
				c4.2-7.4,8.6-14.2,13.4-20.4c5.2-7.4,11.1-14.8,17.5-22.2c-2.1,1-5.6,3.3-10.4,7.2c-4.8,3.8-10.2,8.5-16.3,14.1
				c-6.1,5.6-12.5,11.6-19.2,18.1c-6.7,6.4-13,12.7-19,18.8c-6,6.1-11.2,11.6-15.8,16.6c-4.5,5-7.6,8.7-9.3,11.1
				c-2.9,3.8-5.3,5.4-7.3,4.7c-2-0.7-3.6-2.4-4.7-5c-1.1-2.6-1.7-5.7-2-9.1c-0.2-3.5,0.2-6.1,1.4-8.1c0.7-1.2,2.3-3.5,4.7-6.8
				c2.4-3.3,5.2-7.3,8.4-12c3.2-4.7,6.7-9.7,10.6-15.2c3.8-5.5,7.5-10.8,10.9-15.9c3.5-5.1,6.6-9.9,9.5-14.3
				c2.9-4.4,5.1-7.9,6.8-10.6c-9.3,7.9-19.2,16.7-29.5,26.5c-10.4,9.8-20.2,19.4-29.5,28.8c-9.3,9.4-17.5,18.2-24.5,26.3
				c-7,8.1-12,14.4-14.9,19c-1.2,1.9-2.8,2.6-4.8,2c-2-0.6-3.9-1.8-5.5-3.8c-1.7-1.9-3-4.2-3.9-6.8c-1-2.6-0.8-5.1,0.4-7.5
				c0.7-1.4,2.7-5.2,5.9-11.3c3.2-6.1,7.1-13.4,11.6-22c4.5-8.6,9.6-17.8,15.2-27.6c5.6-9.8,11.1-19.1,16.5-27.9
				c5.4-8.8,10.4-16.6,15.2-23.4C2251.7,107.4,2255.6,102.7,2258.8,100.1z"/>
			<linearGradient id="XMLID_91_" gradientUnits="userSpaceOnUse" x1="1848.3525" y1="173" x2="2509.4495" y2="173">
				<stop  offset="0" style="stop-color:#F1C40F"/>
				<stop  offset="6.137253e-002" style="stop-color:#EEA80F"/>
				<stop  offset="0.1987" style="stop-color:#E6520F"/>
				<stop  offset="0.2039" style="stop-color:#E55111"/>
				<stop  offset="0.3551" style="stop-color:#CA4026"/>
				<stop  offset="0.4418" style="stop-color:#C03A2A"/>
				<stop  offset="0.4787" style="stop-color:#BF3B30"/>
				<stop  offset="0.5422" style="stop-color:#BA4040"/>
				<stop  offset="0.6246" style="stop-color:#B24859"/>
				<stop  offset="0.7229" style="stop-color:#A4517B"/>
				<stop  offset="0.8285" style="stop-color:#905BA1"/>
				<stop  offset="0.8674" style="stop-color:#8669AB"/>
				<stop  offset="0.9472" style="stop-color:#6486C4"/>
				<stop  offset="1" style="stop-color:#3997D3"/>
			</linearGradient>
			<path id="XMLID_181_" class="st8" d="M2481.8,78.9c-2.4,2.1-5.7,5.6-9.8,10.4c-4.2,4.8-8.8,10.7-14,17.7
				c-5.1,7-10.6,14.9-16.5,23.6c-5.9,8.7-11.8,18.1-17.7,28.1c5.2-8.1,10.9-16,16.8-23.8c6-7.8,11.8-14.7,17.4-20.9
				c5.6-6.2,10.9-11.3,15.9-15.4c5-4.1,9.2-6.3,12.5-6.8c5-0.7,9,0.4,12,3.2c3,2.9,5.3,6.4,7,10.7c1.7,4.3,2.8,8.6,3.4,12.9
				c0.6,4.3,0.8,7.4,0.5,9.3c-0.5,5.3-2.3,11.7-5.5,19.3c-3.2,7.6-7.3,15.7-12.4,24.2c-5,8.5-10.6,17-16.6,25.6
				c-6.1,8.6-12.4,16.4-18.8,23.3c-6.4,6.9-12.8,12.6-19,17c-6.2,4.4-11.7,6.9-16.5,7.3c-4.5,0.5-9.4-1-14.5-4.3
				c-5.1-3.3-10-7.9-14.5-13.6c-5.5,10.3-10.7,20.1-15.6,29.5c-4.9,9.4-9.2,18-13.1,25.6c-3.8,7.6-7,14.3-9.7,20
				c-2.6,5.7-4.3,9.9-5,12.5c-0.7,2.1-2.3,3.4-4.7,3.8c-2.4,0.4-4.8,0.1-7.3-0.7c-2.5-0.8-4.7-2.1-6.6-3.8c-1.9-1.7-2.7-3.5-2.5-5.4
				c0.5-3.6,2.2-9,5.2-16.1c3-7.2,6.7-15.5,11.3-24.9c4.5-9.4,9.8-19.8,15.8-31c6-11.2,12.3-22.8,19-34.7c-1.7-5-2.6-10-2.9-15
				c0-4.5,1.1-9.2,3.4-14c2.3-4.8,4.8-8.8,7.5-12c2.7-3.2,5.1-5.2,7-6.1c1.9-0.8,2.5,0.5,1.8,4.1c-1.2,4.3-1.5,9.4-1.1,15.4
				c5.7-9.8,11.3-19.3,16.8-28.6c5.5-9.3,10.8-18,15.9-26.1c5.1-8.1,10-15.5,14.5-22.2c4.5-6.7,8.5-12.2,11.8-16.5
				c2.4-3.1,5.8-5.4,10.2-7c4.4-1.5,8.4-2.3,12-2.3c3.6,0,6.3,0.7,8.1,2C2485.2,74.7,2484.6,76.5,2481.8,78.9z M2412,225
				c3.8,0,8.5-2.4,14.1-7.3c5.6-4.9,11.6-11,17.9-18.4c6.3-7.4,12.5-15.6,18.6-24.7c6.1-9.1,11.5-17.8,16.3-26.1
				c4.8-8.4,8.5-15.9,11.3-22.6c2.7-6.7,3.9-11.3,3.4-14c-0.7-2.6-4.4-1.6-10.9,3c-6.6,4.7-14.5,11.8-23.8,21.3
				c-9.3,9.5-19.2,20.9-29.7,34c-10.5,13.1-20,26.7-28.6,40.8c1.4,4.1,3.1,7.4,5,10C2407.4,223.7,2409.6,225,2412,225z"/>
		</g>
	</g>
	<g id="XMLID_35_">
		<path id="XMLID_36_" class="st9" d="M387.5,246.3c-14-8.2-24.8-19.8-32.3-34.8c-7.5-15-11.3-32.8-11.3-53.3
			c0-20.4,3.8-38,11.3-53.1c7.5-15,18.3-26.6,32.3-34.6c14-8.1,30.5-12.1,49.4-12.1c13.4,0,25.8,2.1,37.3,6.2
			c11.5,4.1,21.1,10.1,29,18l-9.9,20.9c-9.2-7.5-18.2-13-27.1-16.4c-8.9-3.4-18.6-5.1-29-5.1c-20.3,0-36.1,6.6-47.2,19.8
			c-11.1,13.2-16.6,32-16.6,56.4c0,24.6,5.5,43.5,16.6,56.8c11.1,13.3,26.8,19.9,47.2,19.9c10.5,0,20.1-1.7,29-5.1
			c8.9-3.4,17.9-8.8,27.1-16.4l9.9,20.9c-7.9,7.9-17.6,13.9-29,18c-11.5,4.1-23.9,6.2-37.3,6.2C417.9,258.6,401.5,254.5,387.5,246.3
			z"/>
		<path id="XMLID_38_" class="st9" d="M659.8,170v86.4h-27.8v-84.7c0-12.1-2.3-20.9-7-26.4c-4.7-5.5-12.1-8.3-22.4-8.3
			c-11.7,0-21.1,3.7-28.2,11c-7.1,7.3-10.6,17.1-10.6,29.4v78.9h-27.5V54h27.5v85.3c4.6-8.1,10.9-14.2,19-18.4
			c8.1-4.2,17.1-6.3,27.2-6.3C643.2,114.5,659.8,133,659.8,170z"/>
		<path id="XMLID_40_" class="st9" d="M826.2,117.8v138.6h-27.5v-23.6c-4,8.3-10,14.6-18,19c-8,4.4-17.3,6.6-27.9,6.6
			c-12.3,0-23.1-2.9-32.3-8.8c-9.3-5.9-16.5-14.2-21.6-24.9c-5.1-10.7-7.7-23.2-7.7-37.5c0-14.3,2.6-27,7.8-38s12.5-19.5,21.9-25.6
			c9.4-6,20-9.1,31.9-9.1c10.6,0,19.9,2.2,27.8,6.7c7.9,4.5,13.9,10.9,18.2,19.1v-22.6H826.2z M788.4,223.2
			c6.9-8.7,10.3-20.9,10.3-36.7c0-15.9-3.4-28.2-10.3-36.9c-6.9-8.6-16.6-12.9-29.3-12.9c-12.5,0-22.2,4.4-29.3,13.3
			c-7.1,8.9-10.6,21.2-10.6,37c0,15.6,3.5,27.7,10.6,36.3c7.1,8.6,16.9,12.9,29.6,12.9C771.8,236.3,781.5,231.9,788.4,223.2z"/>
		<path id="XMLID_51_" class="st9" d="M866.9,256.4V54h27.5v202.4H866.9z"/>
		<path id="XMLID_54_" class="st9" d="M935.1,256.4V54h27.5v202.4H935.1z"/>
		<path id="XMLID_58_" class="st9" d="M1121.5,187.6h-99c0.9,32.5,15.7,48.7,44.3,48.7c16,0,30.5-5.2,43.7-15.7l8.5,19.8
			c-6.2,5.5-14.2,9.9-23.8,13.1c-9.6,3.2-19.3,4.8-29,4.8c-22.2,0-39.6-6.4-52.3-19.1c-12.7-12.7-19-30.2-19-52.4
			c0-14.1,2.8-26.7,8.4-37.7c5.6-11,13.4-19.5,23.5-25.6c10.1-6,21.5-9.1,34.4-9.1c18.7,0,33.4,6,44.1,18.1
			c10.7,12.1,16.1,28.9,16.1,50.3V187.6z M1036.3,144.4c-6.6,6.2-10.8,15.1-12.6,26.7h73.4c-1.1-11.7-4.7-20.7-10.7-26.8
			c-6.1-6.1-14.2-9.2-24.5-9.2C1051.4,135.1,1042.9,138.2,1036.3,144.4z"/>
		<path id="XMLID_61_" class="st9" d="M1276.9,170v86.4h-27.8v-84.7c0-12.1-2.3-20.9-7-26.4c-4.7-5.5-12.1-8.3-22.4-8.3
			c-11.7,0-21.1,3.7-28.2,11c-7.1,7.3-10.6,17.1-10.6,29.4v78.9h-27.5v-99.5c0-14.5-0.7-27.5-2.2-39.1h25.8l2.5,23.9
			c4.4-8.8,10.8-15.5,19.1-20.2c8.3-4.7,17.8-7,28.5-7C1260.3,114.5,1276.9,133,1276.9,170z"/>
		<path id="XMLID_65_" class="st9" d="M1444.4,117.8v136.1c0,21.1-5.5,37-16.6,47.7c-11.1,10.7-27.5,16.1-49.4,16.1
			c-21.1,0-39.5-4.6-55.3-13.8l4.7-21.7c8.6,4.6,16.9,8,24.9,10.2c8,2.2,16.5,3.3,25.4,3.3c25.8,0,38.8-13.2,38.8-39.6v-30
			c-4.2,8.1-10.4,14.4-18.4,19.1c-8.1,4.7-17.4,7-28,7c-12.1,0-22.9-2.8-32.3-8.5c-9.4-5.7-16.8-13.8-22-24.2
			c-5.2-10.4-7.8-22.5-7.8-36c0-13.6,2.6-25.6,7.8-36c5.2-10.5,12.6-18.6,22-24.3c9.4-5.8,20.2-8.7,32.3-8.7c10.6,0,20,2.2,28,6.7
			c8.1,4.5,14.2,10.9,18.4,19.1v-22.6H1444.4z M1406.2,217.6c7.2-8.3,10.7-19.6,10.7-34.1c0-14.5-3.5-25.9-10.6-34.2
			c-7.1-8.3-16.9-12.5-29.6-12.5c-12.5,0-22.3,4.2-29.6,12.5c-7.2,8.3-10.9,19.8-10.9,34.2c0,14.3,3.6,25.6,10.9,34
			c7.2,8.3,17.1,12.5,29.6,12.5C1389.2,230,1399,225.8,1406.2,217.6z"/>
		<path id="XMLID_68_" class="st9" d="M1603.3,187.6h-99c0.9,32.5,15.7,48.7,44.3,48.7c16,0,30.5-5.2,43.7-15.7l8.5,19.8
			c-6.2,5.5-14.2,9.9-23.8,13.1c-9.6,3.2-19.3,4.8-29,4.8c-22.2,0-39.6-6.4-52.3-19.1c-12.7-12.7-19-30.2-19-52.4
			c0-14.1,2.8-26.7,8.4-37.7c5.6-11,13.4-19.5,23.5-25.6c10.1-6,21.5-9.1,34.4-9.1c18.7,0,33.4,6,44.1,18.1
			c10.7,12.1,16.1,28.9,16.1,50.3V187.6z M1518.1,144.4c-6.6,6.2-10.8,15.1-12.6,26.7h73.4c-1.1-11.7-4.7-20.7-10.7-26.8
			c-6.1-6.1-14.2-9.2-24.5-9.2C1533.2,135.1,1524.7,138.2,1518.1,144.4z"/>
		<path id="XMLID_76_" class="st9" d="M1626.4,240.7l8.3-20.1c14.5,11,31.1,16.5,49.8,16.5c9.5,0,16.8-1.6,21.7-4.8
			c5-3.2,7.4-7.7,7.4-13.6c0-5-1.7-8.8-5.1-11.7c-3.4-2.8-9.1-5.3-17.2-7.3l-23.1-5.5c-12.1-2.6-21.3-7.1-27.6-13.6
			c-6.3-6.5-9.5-14.6-9.5-24.3c0-12.5,5-22.5,15-30.3c10-7.7,23.2-11.5,39.7-11.5c9.9,0,19.3,1.6,28.2,4.7
			c8.9,3.1,16.5,7.5,22.7,13.2l-8.5,19.5c-13.4-10.6-27.5-16-42.3-16c-9,0-16,1.7-20.9,5.1c-5,3.4-7.4,8.1-7.4,14.2
			c0,4.8,1.6,8.6,4.7,11.6c3.1,2.9,8.1,5.2,14.9,6.9l23.6,5.8c13.2,2.9,23,7.6,29.3,13.9c6.3,6.3,9.5,14.5,9.5,24.6
			c0,12.5-5,22.3-15,29.6c-10,7.2-23.6,10.9-40.8,10.9C1659.4,258.3,1640.4,252.4,1626.4,240.7z"/>
		<path id="XMLID_83_" class="st9" d="M1769,222.1h34.3v34.3H1769V222.1z"/>
	</g>
</g>
<g id="Calque_2">
</g>
</svg>
